<?xml version="1.0" encoding="UTF-8" standalone="no"?>
<!DOCTYPE svg PUBLIC "-//W3C//DTD SVG 1.1//EN" "http://www.w3.org/Graphics/SVG/1.1/DTD/svg11.dtd">
<!-- Generated by graphviz version 2.38.0 (20140413.2041)
 -->
<!-- Title: G Pages: 1 -->
<svg width="954pt" height="998pt" viewBox="0.00 0.00 954.00 998.00" xmlns="http://www.w3.org/2000/svg" xmlns:xlink="http://www.w3.org/1999/xlink">
<g id="graph0" class="graph" transform="scale(1 1) rotate(0) translate(4 994)">
<title>G</title>
<polygon fill="white" stroke="none" points="-4,4 -4,-994 950,-994 950,4 -4,4"/>
<g id="clust1" class="cluster"><title>cluster_src</title>
<polygon fill="none" stroke="black" points="8,-646 8,-982 134,-982 134,-646 8,-646"/>
</g>
<g id="clust2" class="cluster"><title>cluster_goto</title>
<polygon fill="none" stroke="black" points="234,-788 234,-857 560,-857 560,-788 234,-788"/>
</g>
<g id="clust3" class="cluster"><title>cluster_funmap</title>
<polygon fill="none" stroke="black" points="142,-549 142,-707.5 786,-707.5 786,-549 142,-549"/>
</g>
<g id="clust4" class="cluster"><title>cluster_goto_program</title>
<polygon fill="none" stroke="black" points="450,-557 450,-611 778,-611 778,-557 450,-557"/>
</g>
<g id="clust5" class="cluster"><title>cluster_instructions</title>
<polygon fill="none" stroke="black" points="496,-240 496,-532 662,-532 662,-240 496,-240"/>
</g>
<g id="clust6" class="cluster"><title>cluster_ins1</title>
<polygon fill="none" stroke="black" points="504,-472 504,-524 654,-524 654,-472 504,-472"/>
</g>
<g id="clust7" class="cluster"><title>cluster_ins2</title>
<polygon fill="none" stroke="black" points="504,-398 504,-450 654,-450 654,-398 504,-398"/>
</g>
<g id="clust8" class="cluster"><title>cluster_ins3</title>
<polygon fill="none" stroke="black" points="504,-323 504,-375 654,-375 654,-323 504,-323"/>
</g>
<g id="clust9" class="cluster"><title>cluster_ins4</title>
<polygon fill="none" stroke="black" points="504,-248 504,-300 654,-300 654,-248 504,-248"/>
</g>
<g id="clust10" class="cluster"><title>cluster_decl</title>
<polygon fill="none" stroke="black" points="828,-240 828,-451 938,-451 938,-240 828,-240"/>
</g>
<g id="clust11" class="cluster"><title>cluster_decl_in</title>
<polygon fill="none" stroke="black" points="836,-248 836,-375 930,-375 930,-248 836,-248"/>
</g>
<g id="clust12" class="cluster"><title>cluster_assign1</title>
<polygon fill="none" stroke="black" points="325,-160 325,-376 483,-376 483,-160 325,-160"/>
</g>
<g id="clust13" class="cluster"><title>cluster_assign1_in</title>
<polygon fill="none" stroke="black" points="333,-168 333,-300 475,-300 475,-168 333,-168"/>
</g>
<g id="clust14" class="cluster"><title>cluster_if</title>
<polygon fill="none" stroke="black" points="670,-168 670,-301 820,-301 820,-168 670,-168"/>
</g>
<g id="clust15" class="cluster"><title>cluster_assign2</title>
<polygon fill="none" stroke="black" points="491,-8 491,-221 649,-221 649,-8 491,-8"/>
</g>
<g id="clust16" class="cluster"><title>cluster_assign2_in</title>
<polygon fill="none" stroke="black" points="499,-16 499,-141 641,-141 641,-16 499,-16"/>
</g>
<!-- 1 -->
<g id="node1" class="node"><title>1</title>
<text text-anchor="middle" x="74" y="-952.3" font-family="Times,serif" font-size="14.00">source files</text>
</g>
<!-- 2 -->
<g id="node2" class="node"><title>2</title>
<polygon fill="none" stroke="black" points="124,-887 20,-887 20,-758 124,-758 124,-887"/>
<text text-anchor="middle" x="72" y="-871.8" font-family="Times,serif" font-size="14.00">file1.c</text>
<text text-anchor="middle" x="72" y="-856.8" font-family="Times,serif" font-size="14.00">-----------</text>
<text text-anchor="middle" x="72" y="-841.8" font-family="Times,serif" font-size="14.00">int main(){</text>
<text text-anchor="middle" x="72" y="-826.8" font-family="Times,serif" font-size="14.00">  int x = 5;</text>
<text text-anchor="middle" x="72" y="-811.8" font-family="Times,serif" font-size="14.00">  if(x &gt; 7){</text>
<text text-anchor="middle" x="72" y="-796.8" font-family="Times,serif" font-size="14.00">    x = 9; } }</text>
<text text-anchor="middle" x="72" y="-765.8" font-family="Times,serif" font-size="14.00">void foo(){}</text>
</g>
<!-- 1&#45;&gt;2 -->
<g id="edge1" class="edge"><title>1-&gt;2</title>
<path fill="none" stroke="white" d="M73.7385,-937.809C73.5752,-927.072 73.3526,-912.433 73.1211,-897.216"/>
<polygon fill="white" stroke="white" points="76.6201,-897.113 72.9683,-887.168 69.6209,-897.22 76.6201,-897.113"/>
</g>
<!-- 3 -->
<g id="node4" class="node"><title>3</title>
<g id="a_node4"><a xlink:href="classgoto__functionst.html" target="_top" xlink:title="a\ngoto_functionst">
<text text-anchor="middle" x="488" y="-826.3" font-family="Times,serif" font-size="14.00">a</text>
<text text-anchor="middle" x="488" y="-811.3" font-family="Times,serif" font-size="14.00">goto_functionst</text>
</a>
</g>
</g>
<!-- 1&#45;&gt;3 -->
<g id="edge3" class="edge"><title>1-&gt;3</title>
<path fill="none" stroke="black" d="M133.997,-952.33C204.535,-947.144 323.571,-931.886 415,-887 427.16,-881.03 438.903,-872.52 449.285,-863.663"/>
<polygon fill="black" stroke="black" points="451.792,-866.117 456.943,-856.858 447.143,-860.884 451.792,-866.117"/>
<text text-anchor="middle" x="426" y="-908.8" font-family="Times,serif" font-size="14.00">corresponds to</text>
</g>
<!-- 100 -->
<g id="node3" class="node"><title>100</title>
<polygon fill="none" stroke="black" points="126,-707 16,-707 16,-654 126,-654 126,-707"/>
<text text-anchor="middle" x="71" y="-691.8" font-family="Times,serif" font-size="14.00">file2.c</text>
<text text-anchor="middle" x="71" y="-676.8" font-family="Times,serif" font-size="14.00">--------</text>
<text text-anchor="middle" x="71" y="-661.8" font-family="Times,serif" font-size="14.00">char bar(){ }</text>
</g>
<!-- 2&#45;&gt;100 -->
<g id="edge2" class="edge"><title>2-&gt;100</title>
<path fill="none" stroke="white" d="M71.5439,-757.645C71.4451,-743.812 71.344,-729.657 71.2562,-717.362"/>
<polygon fill="white" stroke="white" points="74.7542,-717.066 71.1828,-707.092 67.7544,-717.116 74.7542,-717.066"/>
</g>
<!-- 4 -->
<g id="node5" class="node"><title>4</title>
<polygon fill="none" stroke="black" points="406,-849 242,-849 242,-796 406,-796 406,-849"/>
<text text-anchor="middle" x="324" y="-833.8" font-family="Times,serif" font-size="14.00">function_map</text>
<text text-anchor="middle" x="324" y="-818.8" font-family="Times,serif" font-size="14.00">(a map from irep_idt</text>
<text text-anchor="middle" x="324" y="-803.8" font-family="Times,serif" font-size="14.00">to goto_programt)</text>
</g>
<!-- 5 -->
<g id="node6" class="node"><title>5</title>
<g id="a_node6"><a xlink:href="irep_8h.html#a1ad4faefa9ca542d481e74be9cc01c2c" target="_top" xlink:title="main\n(an irep_idt)">
<polygon fill="none" stroke="black" points="653,-699.5 549,-699.5 549,-661.5 653,-661.5 653,-699.5"/>
<text text-anchor="middle" x="601" y="-684.3" font-family="Times,serif" font-size="14.00">main</text>
<text text-anchor="middle" x="601" y="-669.3" font-family="Times,serif" font-size="14.00">(an irep_idt)</text>
</a>
</g>
</g>
<!-- 4&#45;&gt;5 -->
<g id="edge4" class="edge"><title>4-&gt;5</title>
<path fill="none" stroke="black" d="M357.003,-795.845C373.8,-783.479 394.878,-768.985 415,-758 447.517,-740.247 485.032,-724.069 517.815,-711.209"/>
<polygon fill="black" stroke="black" points="519.319,-714.38 527.376,-707.5 516.787,-707.854 519.319,-714.38"/>
<text text-anchor="middle" x="501.5" y="-728.8" font-family="Times,serif" font-size="14.00">value:</text>
</g>
<!-- 11 -->
<g id="node11" class="node"><title>11</title>
<g id="a_node11"><a xlink:href="classgoto__programt.html" target="_top" xlink:title="a\ngoto_programt">
<text text-anchor="middle" x="708" y="-587.8" font-family="Times,serif" font-size="14.00">a</text>
<text text-anchor="middle" x="708" y="-572.8" font-family="Times,serif" font-size="14.00">goto_programt</text>
</a>
</g>
</g>
<!-- 5&#45;&gt;11 -->
<g id="edge7" class="edge"><title>5-&gt;11</title>
<path fill="none" stroke="black" d="M621.631,-661.279C635.53,-649.004 654.263,-632.46 670.729,-617.917"/>
<polygon fill="black" stroke="black" points="673.421,-620.209 678.6,-610.965 668.788,-614.962 673.421,-620.209"/>
<text text-anchor="middle" x="699" y="-624.8" font-family="Times,serif" font-size="14.00">maps to:</text>
</g>
<!-- 9 -->
<g id="node7" class="node"><title>9</title>
<g id="a_node7"><a xlink:href="irep_8h.html#a1ad4faefa9ca542d481e74be9cc01c2c" target="_top" xlink:title="bar\n(an irep_idt)">
<polygon fill="none" stroke="black" points="424,-699.5 320,-699.5 320,-661.5 424,-661.5 424,-699.5"/>
<text text-anchor="middle" x="372" y="-684.3" font-family="Times,serif" font-size="14.00">bar</text>
<text text-anchor="middle" x="372" y="-669.3" font-family="Times,serif" font-size="14.00">(an irep_idt)</text>
</a>
</g>
</g>
<!-- 10 -->
<g id="node8" class="node"><title>10</title>
<g id="a_node8"><a xlink:href="classgoto__programt.html" target="_top" xlink:title="a goto_programt">
<polygon fill="none" stroke="black" points="440,-602 304,-602 304,-566 440,-566 440,-602"/>
<text text-anchor="middle" x="372" y="-580.3" font-family="Times,serif" font-size="14.00">a goto_programt</text>
</a>
</g>
</g>
<!-- 9&#45;&gt;10 -->
<g id="edge5" class="edge"><title>9-&gt;10</title>
<path fill="none" stroke="black" d="M372,-661.279C372,-647.422 372,-628.125 372,-612.408"/>
<polygon fill="black" stroke="black" points="375.5,-612.209 372,-602.209 368.5,-612.209 375.5,-612.209"/>
<text text-anchor="middle" x="401" y="-624.8" font-family="Times,serif" font-size="14.00">maps to</text>
</g>
<!-- 7 -->
<g id="node9" class="node"><title>7</title>
<g id="a_node9"><a xlink:href="irep_8h.html#a1ad4faefa9ca542d481e74be9cc01c2c" target="_top" xlink:title="foo\n(an irep_idt)">
<polygon fill="none" stroke="black" points="270,-699.5 166,-699.5 166,-661.5 270,-661.5 270,-699.5"/>
<text text-anchor="middle" x="218" y="-684.3" font-family="Times,serif" font-size="14.00">foo</text>
<text text-anchor="middle" x="218" y="-669.3" font-family="Times,serif" font-size="14.00">(an irep_idt)</text>
</a>
</g>
</g>
<!-- 8 -->
<g id="node10" class="node"><title>8</title>
<g id="a_node10"><a xlink:href="classgoto__programt.html" target="_top" xlink:title="a goto_programt">
<polygon fill="none" stroke="black" points="286,-602 150,-602 150,-566 286,-566 286,-602"/>
<text text-anchor="middle" x="218" y="-580.3" font-family="Times,serif" font-size="14.00">a goto_programt</text>
</a>
</g>
</g>
<!-- 7&#45;&gt;8 -->
<g id="edge6" class="edge"><title>7-&gt;8</title>
<path fill="none" stroke="black" d="M218,-661.279C218,-647.422 218,-628.125 218,-612.408"/>
<polygon fill="black" stroke="black" points="221.5,-612.209 218,-602.209 214.5,-612.209 221.5,-612.209"/>
<text text-anchor="middle" x="247" y="-624.8" font-family="Times,serif" font-size="14.00">maps to</text>
</g>
<!-- 12 -->
<g id="node12" class="node"><title>12</title>
<polygon fill="none" stroke="black" points="628,-603 458,-603 458,-565 628,-565 628,-603"/>
<text text-anchor="middle" x="543" y="-587.8" font-family="Times,serif" font-size="14.00">instructions</text>
<text text-anchor="middle" x="543" y="-572.8" font-family="Times,serif" font-size="14.00">(a list of instructiont)</text>
</g>
<!-- target1 -->
<g id="node13" class="node"><title>target1</title>
<polygon fill="none" stroke="black" points="573.5,-516 512.5,-516 512.5,-480 573.5,-480 573.5,-516"/>
<text text-anchor="middle" x="543" y="-494.3" font-family="Times,serif" font-size="14.00">target</text>
</g>
<!-- 12&#45;&gt;target1 -->
<g id="edge8" class="edge"><title>12-&gt;target1</title>
<path fill="none" stroke="black" d="M543,-564.773C543,-557.94 543,-549.854 543,-541.732"/>
<polygon fill="black" stroke="black" points="546.5,-541.517 543,-531.517 539.5,-541.517 546.5,-541.517"/>
</g>
<!-- target2 -->
<g id="node15" class="node"><title>target2</title>
<polygon fill="none" stroke="black" points="645.5,-442 584.5,-442 584.5,-406 645.5,-406 645.5,-442"/>
<text text-anchor="middle" x="615" y="-420.3" font-family="Times,serif" font-size="14.00">target</text>
</g>
<!-- target1&#45;&gt;target2 -->
<g id="edge9" class="edge"><title>target1-&gt;target2</title>
<path fill="none" stroke="white" d="M567.576,-472.424C572.569,-467.431 577.889,-462.111 583.093,-456.907"/>
<polygon fill="white" stroke="white" points="585.66,-459.29 590.256,-449.744 580.71,-454.34 585.66,-459.29"/>
</g>
<!-- code1 -->
<g id="node14" class="node"><title>code1</title>
<g id="a_node14"><a xlink:href="classcodet.html" target="_top" xlink:title="code">
<polygon fill="none" stroke="black" points="646,-516 592,-516 592,-480 646,-480 646,-516"/>
<text text-anchor="middle" x="619" y="-494.3" font-family="Times,serif" font-size="14.00">code</text>
</a>
</g>
</g>
<!-- decl1 -->
<g id="node21" class="node"><title>decl1</title>
<g id="a_node21"><a xlink:href="classcode__declt.html" target="_top" xlink:title="type:\ncode_declt">
<text text-anchor="middle" x="883" y="-427.8" font-family="Times,serif" font-size="14.00">type:</text>
<text text-anchor="middle" x="883" y="-412.8" font-family="Times,serif" font-size="14.00">code_declt</text>
</a>
</g>
</g>
<!-- code1&#45;&gt;decl1 -->
<g id="edge14" class="edge"><title>code1-&gt;decl1</title>
<path fill="none" stroke="black" d="M646.258,-489.566C688.513,-478.042 770.734,-455.618 826.264,-440.473"/>
<polygon fill="black" stroke="black" points="819.847,-446.594 828,-439.828 817.407,-440.033 819.847,-446.594"/>
</g>
<!-- target3 -->
<g id="node17" class="node"><title>target3</title>
<polygon fill="none" stroke="black" points="573.5,-367 512.5,-367 512.5,-331 573.5,-331 573.5,-367"/>
<text text-anchor="middle" x="543" y="-345.3" font-family="Times,serif" font-size="14.00">target</text>
</g>
<!-- target2&#45;&gt;target3 -->
<g id="edge10" class="edge"><title>target2-&gt;target3</title>
<path fill="none" stroke="white" d="M590.356,-398.014C585.317,-392.905 579.947,-387.461 574.701,-382.142"/>
<polygon fill="white" stroke="white" points="577.001,-379.489 567.486,-374.827 572.017,-384.404 577.001,-379.489"/>
</g>
<!-- code2 -->
<g id="node16" class="node"><title>code2</title>
<g id="a_node16"><a xlink:href="classcodet.html" target="_top" xlink:title="code">
<polygon fill="none" stroke="black" points="566,-442 512,-442 512,-406 566,-406 566,-442"/>
<text text-anchor="middle" x="539" y="-420.3" font-family="Times,serif" font-size="14.00">code</text>
</a>
</g>
</g>
<!-- assign1 -->
<g id="node24" class="node"><title>assign1</title>
<g id="a_node24"><a xlink:href="classcode__assignt.html" target="_top" xlink:title="type:\ncode_assignt">
<text text-anchor="middle" x="420" y="-352.8" font-family="Times,serif" font-size="14.00">type:</text>
<text text-anchor="middle" x="420" y="-337.8" font-family="Times,serif" font-size="14.00">code_assignt</text>
</a>
</g>
</g>
<!-- code2&#45;&gt;assign1 -->
<g id="edge18" class="edge"><title>code2-&gt;assign1</title>
<path fill="none" stroke="black" d="M511.997,-406.435C499.666,-398.871 484.648,-389.658 470.352,-380.888"/>
<polygon fill="black" stroke="black" points="471.929,-377.749 461.574,-375.504 468.268,-383.716 471.929,-377.749"/>
</g>
<!-- target4 -->
<g id="node19" class="node"><title>target4</title>
<polygon fill="none" stroke="black" points="645.5,-292 584.5,-292 584.5,-256 645.5,-256 645.5,-292"/>
<text text-anchor="middle" x="615" y="-270.3" font-family="Times,serif" font-size="14.00">target</text>
</g>
<!-- target3&#45;&gt;target4 -->
<g id="edge11" class="edge"><title>target3-&gt;target4</title>
<path fill="none" stroke="white" d="M567.644,-323.014C572.683,-317.905 578.053,-312.461 583.299,-307.142"/>
<polygon fill="white" stroke="white" points="585.983,-309.404 590.514,-299.827 580.999,-304.489 585.983,-309.404"/>
</g>
<!-- code3 -->
<g id="node18" class="node"><title>code3</title>
<g id="a_node18"><a xlink:href="classcodet.html" target="_top" xlink:title="code">
<polygon fill="none" stroke="black" points="646,-367 592,-367 592,-331 646,-331 646,-367"/>
<text text-anchor="middle" x="619" y="-345.3" font-family="Times,serif" font-size="14.00">code</text>
</a>
</g>
</g>
<!-- if -->
<g id="node29" class="node"><title>if</title>
<g id="a_node29"><a xlink:href="classcode__ifthenelset.html" target="_top" xlink:title="type:\ncode_ifthenelset">
<text text-anchor="middle" x="745" y="-277.8" font-family="Times,serif" font-size="14.00">type:</text>
<text text-anchor="middle" x="745" y="-262.8" font-family="Times,serif" font-size="14.00">code_ifthenelset</text>
</a>
</g>
</g>
<!-- code3&#45;&gt;if -->
<g id="edge20" class="edge"><title>code3-&gt;if</title>
<path fill="none" stroke="black" d="M646.03,-332.34C659.211,-324.703 675.551,-315.236 691.131,-306.21"/>
<polygon fill="black" stroke="black" points="693.288,-309.005 700.186,-300.964 689.779,-302.948 693.288,-309.005"/>
</g>
<!-- code4 -->
<g id="node20" class="node"><title>code4</title>
<g id="a_node20"><a xlink:href="classcodet.html" target="_top" xlink:title="code">
<polygon fill="none" stroke="black" points="566,-292 512,-292 512,-256 566,-256 566,-292"/>
<text text-anchor="middle" x="539" y="-270.3" font-family="Times,serif" font-size="14.00">code</text>
</a>
</g>
</g>
<!-- assign2 -->
<g id="node31" class="node"><title>assign2</title>
<g id="a_node31"><a xlink:href="classcode__assignt.html" target="_top" xlink:title="type:\ncode_assignt">
<text text-anchor="middle" x="570" y="-197.8" font-family="Times,serif" font-size="14.00">type:</text>
<text text-anchor="middle" x="570" y="-182.8" font-family="Times,serif" font-size="14.00">code_assignt</text>
</a>
</g>
</g>
<!-- code4&#45;&gt;assign2 -->
<g id="edge24" class="edge"><title>code4-&gt;assign2</title>
<path fill="none" stroke="black" d="M545.88,-255.689C549.731,-245.999 554.623,-233.689 558.994,-222.693"/>
<polygon fill="black" stroke="black" points="558.595,-231.524 559.816,-221 552.298,-228.466 558.595,-231.524"/>
</g>
<!-- cluster_decl_in_1 -->
<g id="node22" class="node"><title>cluster_decl_in_1</title>
<text text-anchor="middle" x="883" y="-345.3" font-family="Times,serif" font-size="14.00">symbol()</text>
</g>
<!-- decl1&#45;&gt;cluster_decl_in_1 -->
<g id="edge13" class="edge"><title>decl1-&gt;cluster_decl_in_1</title>
<path fill="none" stroke="white" d="M883,-404.955C883,-396.701 883,-386.738 883,-377.574"/>
<polygon fill="white" stroke="white" points="886.5,-385 883,-375 879.5,-385 886.5,-385"/>
</g>
<!-- cluster_decl_in_2 -->
<g id="node23" class="node"><title>cluster_decl_in_2</title>
<polygon fill="none" stroke="black" points="910,-292 856,-292 856,-256 910,-256 910,-292"/>
<text text-anchor="middle" x="883" y="-270.3" font-family="Times,serif" font-size="14.00">x</text>
</g>
<!-- cluster_decl_in_1&#45;&gt;cluster_decl_in_2 -->
<g id="edge12" class="edge"><title>cluster_decl_in_1-&gt;cluster_decl_in_2</title>
<path fill="none" stroke="white" d="M883,-330.7C883,-322.245 883,-311.869 883,-302.373"/>
<polygon fill="white" stroke="white" points="886.5,-302.176 883,-292.176 879.5,-302.176 886.5,-302.176"/>
</g>
<!-- cluster_assign1_in_1 -->
<g id="node25" class="node"><title>cluster_assign1_in_1</title>
<text text-anchor="middle" x="440" y="-270.3" font-family="Times,serif" font-size="14.00">lhs()</text>
</g>
<!-- assign1&#45;&gt;cluster_assign1_in_1 -->
<g id="edge17" class="edge"><title>assign1-&gt;cluster_assign1_in_1</title>
<path fill="none" stroke="white" d="M424.944,-329.955C427.23,-321.611 429.994,-311.521 432.527,-302.276"/>
<polygon fill="white" stroke="white" points="433.556,-310.591 433.251,-300 426.885,-308.469 433.556,-310.591"/>
</g>
<!-- cluster_assign1_in_2 -->
<g id="node26" class="node"><title>cluster_assign1_in_2</title>
<polygon fill="none" stroke="black" points="467,-212 413,-212 413,-176 467,-176 467,-212"/>
<text text-anchor="middle" x="440" y="-190.3" font-family="Times,serif" font-size="14.00">x</text>
</g>
<!-- cluster_assign1_in_1&#45;&gt;cluster_assign1_in_2 -->
<g id="edge15" class="edge"><title>cluster_assign1_in_1-&gt;cluster_assign1_in_2</title>
<path fill="none" stroke="white" d="M440,-255.689C440,-245.894 440,-233.422 440,-222.335"/>
<polygon fill="white" stroke="white" points="443.5,-222.262 440,-212.262 436.5,-222.262 443.5,-222.262"/>
</g>
<!-- cluster_assign1_in_3 -->
<g id="node27" class="node"><title>cluster_assign1_in_3</title>
<text text-anchor="middle" x="368" y="-270.3" font-family="Times,serif" font-size="14.00">rhs()</text>
</g>
<!-- cluster_assign1_in_4 -->
<g id="node28" class="node"><title>cluster_assign1_in_4</title>
<polygon fill="none" stroke="black" points="395,-212 341,-212 341,-176 395,-176 395,-212"/>
<text text-anchor="middle" x="368" y="-190.3" font-family="Times,serif" font-size="14.00">5</text>
</g>
<!-- cluster_assign1_in_3&#45;&gt;cluster_assign1_in_4 -->
<g id="edge16" class="edge"><title>cluster_assign1_in_3-&gt;cluster_assign1_in_4</title>
<path fill="none" stroke="white" d="M368,-255.689C368,-245.894 368,-233.422 368,-222.335"/>
<polygon fill="white" stroke="white" points="371.5,-222.262 368,-212.262 364.5,-222.262 371.5,-222.262"/>
</g>
<!-- if_body -->
<g id="node30" class="node"><title>if_body</title>
<polygon fill="none" stroke="black" points="772,-212 718,-212 718,-176 772,-176 772,-212"/>
<text text-anchor="middle" x="745" y="-190.3" font-family="Times,serif" font-size="14.00">...</text>
</g>
<!-- if&#45;&gt;if_body -->
<g id="edge19" class="edge"><title>if-&gt;if_body</title>
<path fill="none" stroke="white" d="M745,-254.909C745,-245.256 745,-233.176 745,-222.397"/>
<polygon fill="white" stroke="white" points="748.5,-222.19 745,-212.19 741.5,-222.19 748.5,-222.19"/>
</g>
<!-- cluster_assign2_in_1 -->
<g id="node32" class="node"><title>cluster_assign2_in_1</title>
<text text-anchor="middle" x="606" y="-111.3" font-family="Times,serif" font-size="14.00">lhs()</text>
</g>
<!-- assign2&#45;&gt;cluster_assign2_in_1 -->
<g id="edge23" class="edge"><title>assign2-&gt;cluster_assign2_in_1</title>
<path fill="none" stroke="white" d="M578.531,-174.752C583.053,-165.082 588.688,-153.029 593.675,-142.361"/>
<polygon fill="white" stroke="white" points="590.475,-150.569 595.023,-141 585.5,-145.644 590.475,-150.569"/>
</g>
<!-- cluster_assign2_in_2 -->
<g id="node33" class="node"><title>cluster_assign2_in_2</title>
<polygon fill="none" stroke="black" points="633,-60 579,-60 579,-24 633,-24 633,-60"/>
<text text-anchor="middle" x="606" y="-38.3" font-family="Times,serif" font-size="14.00">x</text>
</g>
<!-- cluster_assign2_in_1&#45;&gt;cluster_assign2_in_2 -->
<g id="edge21" class="edge"><title>cluster_assign2_in_1-&gt;cluster_assign2_in_2</title>
<path fill="none" stroke="white" d="M606,-96.8129C606,-88.7895 606,-79.0475 606,-70.0691"/>
<polygon fill="white" stroke="white" points="609.5,-70.0288 606,-60.0288 602.5,-70.0289 609.5,-70.0288"/>
</g>
<!-- cluster_assign2_in_3 -->
<g id="node34" class="node"><title>cluster_assign2_in_3</title>
<text text-anchor="middle" x="534" y="-111.3" font-family="Times,serif" font-size="14.00">rhs()</text>
</g>
<!-- cluster_assign2_in_4 -->
<g id="node35" class="node"><title>cluster_assign2_in_4</title>
<polygon fill="none" stroke="black" points="561,-60 507,-60 507,-24 561,-24 561,-60"/>
<text text-anchor="middle" x="534" y="-38.3" font-family="Times,serif" font-size="14.00">9</text>
</g>
<!-- cluster_assign2_in_3&#45;&gt;cluster_assign2_in_4 -->
<g id="edge22" class="edge"><title>cluster_assign2_in_3-&gt;cluster_assign2_in_4</title>
<path fill="none" stroke="white" d="M534,-96.8129C534,-88.7895 534,-79.0475 534,-70.0691"/>
<polygon fill="white" stroke="white" points="537.5,-70.0288 534,-60.0288 530.5,-70.0289 537.5,-70.0288"/>
</g>
</g>
</svg>