<?xml version="1.0" encoding="UTF-8" standalone="no"?>
<!DOCTYPE svg PUBLIC "-//W3C//DTD SVG 1.1//EN"
 "http://www.w3.org/Graphics/SVG/1.1/DTD/svg11.dtd">
<!-- Generated by graphviz version 2.30.1 (20201013.1554)
 -->
<!-- Title: bin_tree Pages: 1 -->
<svg width="314pt" height="260pt"
 viewBox="0.00 0.00 314.00 260.00" xmlns="http://www.w3.org/2000/svg" xmlns:xlink="http://www.w3.org/1999/xlink">
<g id="graph0" class="graph" transform="scale(1 1) rotate(0) translate(4 256)">
<title>bin_tree</title>
<polygon fill="white" stroke="white" points="-4,5 -4,-256 311,-256 311,5 -4,5"/>
<!-- plusX -->
<g id="node1" class="node"><title>plusX</title>
<ellipse fill="none" stroke="black" cx="126" cy="-90" rx="18" ry="18"/>
<text text-anchor="middle" x="126" y="-86.3" font-family="Times,serif" font-size="14.00">+</text>
</g>
<!-- b -->
<g id="node7" class="node"><title>b</title>
<ellipse fill="none" stroke="black" cx="72" cy="-18" rx="18" ry="18"/>
<text text-anchor="middle" x="72" y="-14.3" font-family="Times,serif" font-size="14.00">b</text>
</g>
<!-- plusX&#45;&#45;b -->
<g id="edge6" class="edge"><title>plusX&#45;&#45;b</title>
<path fill="none" stroke="black" d="M115.331,-75.1703C105.864,-62.8983 92.1067,-45.0643 82.6465,-32.801"/>
</g>
<!-- plusXb -->
<!-- plusX&#45;&#45;plusXb -->
<!-- c -->
<g id="node9" class="node"><title>c</title>
<ellipse fill="none" stroke="black" cx="180" cy="-18" rx="18" ry="18"/>
<text text-anchor="middle" x="180" y="-14.3" font-family="Times,serif" font-size="14.00">c</text>
</g>
<!-- plusX&#45;&#45;c -->
<g id="edge8" class="edge"><title>plusX&#45;&#45;c</title>
<path fill="none" stroke="black" d="M136.669,-75.1703C146.136,-62.8983 159.893,-45.0643 169.354,-32.801"/>
</g>
<!-- subX -->
<g id="node2" class="node"><title>subX</title>
<ellipse fill="none" stroke="black" cx="153" cy="-234" rx="18" ry="18"/>
<text text-anchor="middle" x="153" y="-230.3" font-family="Times,serif" font-size="14.00">&#45;</text>
</g>
<!-- mulX -->
<g id="node3" class="node"><title>mulX</title>
<ellipse fill="none" stroke="black" cx="72" cy="-162" rx="18" ry="18"/>
<text text-anchor="middle" x="72" y="-158.3" font-family="Times,serif" font-size="14.00">*</text>
</g>
<!-- subX&#45;&#45;mulX -->
<g id="edge1" class="edge"><title>subX&#45;&#45;mulX</title>
<path fill="none" stroke="black" d="M139.624,-221.441C124.527,-208.393 100.121,-187.302 85.1266,-174.344"/>
</g>
<!-- divX -->
<g id="node4" class="node"><title>divX</title>
<ellipse fill="none" stroke="black" cx="234" cy="-162" rx="18" ry="18"/>
<text text-anchor="middle" x="234" y="-158.3" font-family="Times,serif" font-size="14.00">/</text>
</g>
<!-- subX&#45;&#45;divX -->
<g id="edge2" class="edge"><title>subX&#45;&#45;divX</title>
<path fill="none" stroke="black" d="M166.376,-221.441C181.473,-208.393 205.879,-187.302 220.873,-174.344"/>
</g>
<!-- a -->
<g id="node5" class="node"><title>a</title>
<ellipse fill="none" stroke="black" cx="18" cy="-90" rx="18" ry="18"/>
<text text-anchor="middle" x="18" y="-86.3" font-family="Times,serif" font-size="14.00">a</text>
</g>
<!-- mulX&#45;&#45;a -->
<g id="edge3" class="edge"><title>mulX&#45;&#45;a</title>
<path fill="none" stroke="black" d="M61.3313,-147.17C51.8644,-134.898 38.1067,-117.064 28.6465,-104.801"/>
</g>
<!-- mulXb -->
<!-- mulX&#45;&#45;mulXb -->
<!-- mulX&#45;&#45;plusX -->
<g id="edge5" class="edge"><title>mulX&#45;&#45;plusX</title>
<path fill="none" stroke="black" d="M82.6687,-147.17C92.1356,-134.898 105.893,-117.064 115.354,-104.801"/>
</g>
<!-- e -->
<g id="node10" class="node"><title>e</title>
<ellipse fill="none" stroke="black" cx="180" cy="-90" rx="18" ry="18"/>
<text text-anchor="middle" x="180" y="-86.3" font-family="Times,serif" font-size="14.00">e</text>
</g>
<!-- divX&#45;&#45;e -->
<g id="edge9" class="edge"><title>divX&#45;&#45;e</title>
<path fill="none" stroke="black" d="M223.331,-147.17C213.864,-134.898 200.107,-117.064 190.646,-104.801"/>
</g>
<!-- divXb -->
<!-- divX&#45;&#45;divXb -->
<!-- f -->
<g id="node12" class="node"><title>f</title>
<ellipse fill="none" stroke="black" cx="288" cy="-90" rx="18" ry="18"/>
<text text-anchor="middle" x="288" y="-86.3" font-family="Times,serif" font-size="14.00">f</text>
</g>
<!-- divX&#45;&#45;f -->
<g id="edge11" class="edge"><title>divX&#45;&#45;f</title>
<path fill="none" stroke="black" d="M244.669,-147.17C254.136,-134.898 267.893,-117.064 277.354,-104.801"/>
</g>
</g>
</svg>
