<?xml version="1.0" standalone="no"?>
<!DOCTYPE svg PUBLIC "-//W3C//DTD SVG 20010904//EN"
 "http://www.w3.org/TR/2001/REC-SVG-20010904/DTD/svg10.dtd">
<svg version="1.0" xmlns="http://www.w3.org/2000/svg"
 width="2392.000000pt" height="2392.000000pt" viewBox="0 0 2392.000000 2392.000000"
 preserveAspectRatio="xMidYMid meet">
<metadata>
Created by potrace 1.14, written by Peter Selinger 2001-2017
</metadata>
<g transform="translate(0.000000,2392.000000) scale(0.100000,-0.100000)"
fill="#000000" stroke="none">
<path d="M20010 22290 c-154 -15 -444 -60 -519 -81 -324 -90 -719 -326 -1047
-625 -159 -146 -357 -355 -472 -501 -57 -72 -501 -990 -666 -1375 -98 -229
-134 -336 -147 -427 -14 -100 -23 -116 -42 -72 -10 24 -30 42 -73 66 -101 55
-207 117 -214 125 -3 3 -23 15 -45 27 -59 31 -104 57 -163 92 -29 17 -57 31
-61 31 -4 0 -20 11 -34 24 -14 13 -28 22 -30 20 -5 -6 -261 147 -265 158 -2 4
-9 8 -16 8 -7 0 -54 25 -105 55 -51 30 -129 71 -174 91 -45 20 -102 46 -127
57 -25 11 -77 35 -117 53 -39 19 -111 51 -160 73 -48 21 -110 49 -138 61 -60
27 -133 59 -160 70 -11 4 -37 15 -57 24 -20 9 -51 19 -68 23 -17 3 -34 12 -37
20 -3 8 -12 12 -19 9 -7 -3 -16 -1 -19 4 -4 6 -14 10 -24 10 -15 0 -131 45
-216 85 -48 22 -142 51 -245 75 -52 12 -104 26 -115 30 -28 11 -96 30 -120 34
-11 2 -27 5 -35 8 -8 3 -33 10 -55 16 -72 19 -129 35 -171 48 -71 22 -215 55
-329 75 -99 17 -216 39 -285 52 -14 3 -45 10 -69 16 -25 5 -47 8 -51 6 -3 -2
-30 3 -60 11 -30 8 -71 17 -90 19 -33 4 -98 16 -200 35 -106 20 -305 48 -390
54 -25 2 -63 6 -85 9 -22 4 -67 9 -100 11 -33 3 -73 8 -90 11 -16 3 -52 7 -80
10 -27 3 -99 9 -160 15 -60 6 -117 12 -125 15 -18 5 -86 12 -228 25 -56 5
-108 12 -114 16 -21 13 -1658 23 -1816 11 -79 -7 -125 -19 -295 -78 -184 -65
-466 -171 -544 -205 -17 -8 -34 -14 -38 -14 -4 0 -93 -39 -198 -87 -119 -53
-228 -110 -286 -150 -51 -34 -95 -63 -98 -63 -3 0 -23 -16 -46 -35 -22 -19
-45 -35 -49 -35 -8 0 -137 -98 -188 -142 -8 -7 -35 -29 -60 -48 -24 -19 -57
-47 -73 -62 -17 -16 -36 -28 -43 -28 -33 0 -105 -43 -159 -96 -33 -32 -150
-146 -260 -254 -110 -107 -243 -232 -295 -278 -52 -45 -111 -98 -130 -116 -19
-18 -78 -70 -130 -115 -52 -45 -111 -97 -130 -115 -19 -18 -100 -90 -180 -161
-188 -165 -419 -393 -434 -427 -6 -14 -58 -66 -115 -115 -109 -93 -147 -118
-94 -62 l31 34 -78 235 c-301 911 -563 1530 -782 1851 -61 90 -208 240 -338
345 -437 353 -925 521 -1336 460 -190 -28 -313 -80 -417 -175 -86 -80 -117
-139 -117 -225 0 -90 25 -143 89 -190 63 -47 117 -69 255 -105 315 -82 640
-252 832 -434 131 -124 203 -240 204 -329 0 -39 -6 -54 -31 -83 -43 -48 -90
-59 -214 -49 -202 16 -249 5 -285 -66 -38 -75 -33 -85 104 -217 122 -118 246
-211 356 -270 59 -31 333 -251 456 -366 56 -52 76 -79 88 -115 38 -118 29
-184 -30 -208 -45 -19 -76 -18 -159 5 -213 58 -345 24 -332 -85 8 -74 62 -147
165 -225 200 -151 525 -450 548 -504 6 -16 15 -50 18 -75 l6 -45 -136 -120
c-170 -151 -453 -430 -567 -559 -171 -193 -208 -251 -364 -566 -511 -1036
-753 -1661 -714 -1845 5 -27 13 -72 17 -100 9 -74 40 -194 62 -245 38 -87 75
-125 160 -167 2 0 -8 -19 -21 -40 -262 -414 -617 -1206 -834 -1858 -26 -77
-53 -146 -60 -153 -7 -7 -16 -25 -20 -40 -12 -43 -8 -395 6 -532 24 -238 94
-646 155 -910 13 -58 32 -139 41 -180 21 -93 126 -485 160 -600 120 -398 205
-650 220 -650 6 0 27 28 48 62 37 59 40 61 53 43 16 -22 19 -91 15 -345 -3
-235 -38 -933 -66 -1330 -73 -1027 -19 -1859 150 -2325 37 -104 111 -253 147
-298 l23 -28 1 618 c2 1120 52 2059 159 3003 40 350 119 878 160 1070 9 41 18
86 21 100 10 58 47 229 60 275 17 65 20 77 39 160 9 39 20 81 24 95 5 14 14
43 20 65 32 119 67 230 98 315 19 52 42 114 50 138 9 23 17 41 19 39 2 -2 -5
-50 -16 -108 -120 -623 -197 -1347 -221 -2073 -28 -816 45 -1625 200 -2223 11
-45 21 -91 21 -102 0 -102 353 -536 766 -941 509 -500 1060 -913 1524 -1145
41 -20 76 -38 78 -40 3 -3 -22 -62 -62 -145 -19 -39 -40 -87 -46 -108 -7 -20
-18 -46 -24 -57 -20 -32 -74 -175 -137 -357 -31 -94 -60 -173 -63 -176 -3 -3
-6 -18 -6 -34 0 -16 -4 -37 -9 -46 -5 -9 -12 -30 -15 -47 -3 -16 -10 -50 -16
-75 -7 -25 -22 -106 -34 -180 -30 -175 -29 -412 1 -490 24 -64 43 -789 24
-920 -6 -36 -11 -120 -12 -188 -1 -67 -5 -139 -10 -160 -4 -20 -10 -77 -12
-127 -4 -84 -11 -136 -37 -290 -6 -33 -13 -80 -16 -105 -4 -25 -10 -49 -14
-55 -4 -5 -11 -26 -15 -45 -22 -101 -85 -249 -124 -292 -12 -12 -21 -25 -21
-30 0 -4 2256 -8 5013 -8 l5014 0 12 52 c7 29 14 76 15 103 2 28 6 61 10 75 3
14 8 57 11 95 2 39 7 93 10 120 21 211 26 273 29 367 2 59 7 112 11 118 9 15
8 937 -1 952 -4 7 -11 73 -16 148 -8 142 -12 185 -28 290 -5 36 -12 81 -14
100 -3 19 -9 58 -15 85 -5 28 -13 68 -16 90 -9 58 -53 255 -64 290 -5 17 -21
70 -35 118 -23 79 -42 127 -93 247 -58 136 -156 309 -219 387 -19 23 -34 48
-34 57 0 10 58 44 168 97 579 282 1009 549 1410 877 326 266 643 604 856 914
37 54 72 100 77 103 44 28 181 630 240 1055 6 47 17 99 24 117 8 18 62 82 122
144 59 62 115 119 123 128 8 9 64 76 123 149 60 72 112 132 116 132 5 0 11
-33 15 -72 60 -641 44 -1238 -45 -1708 -23 -121 -65 -303 -78 -340 -5 -14 -17
-52 -26 -85 -94 -334 -287 -723 -483 -969 -72 -91 -226 -245 -280 -281 -59
-39 -44 -44 17 -6 345 212 662 616 901 1147 176 392 269 763 319 1274 40 405
53 1003 29 1393 -9 161 -9 203 1 219 60 96 215 401 291 573 30 66 60 131 67
145 7 14 13 30 13 36 0 6 14 44 30 85 41 99 189 544 191 573 0 6 36 40 81 76
110 89 118 97 118 120 0 11 2 20 4 20 3 0 37 -24 76 -53 263 -199 676 -313
1170 -324 248 -5 294 0 479 55 331 99 551 222 752 421 206 204 316 414 365
695 29 163 1 500 -61 746 -107 424 -352 787 -680 1010 -125 85 -275 150 -345
150 -16 0 -37 12 -56 31 -93 98 -377 167 -705 170 -79 1 -165 -2 -190 -6 l-46
-7 -18 69 c-9 37 -25 102 -35 143 -10 41 -37 147 -60 235 -23 88 -46 176 -51
195 -4 19 -13 53 -19 75 -6 22 -15 58 -20 80 -14 67 -46 195 -70 280 -12 44
-24 91 -27 105 -3 14 -17 68 -31 120 -24 91 -32 126 -52 235 -5 28 -14 70 -20
95 -5 25 -14 68 -19 95 -5 28 -33 165 -61 305 -29 140 -53 265 -55 277 -2 12
-6 35 -10 52 -3 17 -7 34 -7 38 0 5 -5 17 -11 28 -6 11 -12 26 -13 34 -2 7
-12 37 -23 67 -12 30 -31 80 -42 112 -12 31 -27 71 -34 87 -7 17 -16 41 -20
55 -4 14 -29 84 -55 155 -26 72 -62 173 -80 225 -18 52 -45 120 -61 150 -34
66 -148 305 -179 375 -51 114 -180 373 -204 408 -14 21 -26 39 -26 41 0 5
-137 231 -175 291 -18 28 -43 69 -56 92 -13 23 -53 89 -89 148 -36 58 -69 115
-75 125 -5 11 -13 20 -17 20 -5 0 -8 5 -8 11 0 11 -75 111 -118 156 -21 23
-97 120 -117 151 -5 8 -21 27 -35 41 -14 14 -45 53 -70 86 -24 33 -46 62 -49
65 -4 3 -53 63 -110 133 l-103 129 38 61 c196 323 442 608 674 780 110 82 165
145 176 203 9 47 0 62 -43 81 -65 27 -168 13 -298 -40 -123 -50 -247 -80 -294
-71 -18 4 -41 18 -52 33 -56 70 42 233 277 461 173 168 433 365 664 502 100
60 143 98 214 193 66 87 95 143 102 198 5 37 2 48 -19 73 -25 28 -28 29 -114
29 -79 -1 -103 -6 -228 -50 -99 -34 -161 -50 -212 -53 -67 -4 -73 -3 -98 23
-24 24 -27 32 -21 72 8 60 35 119 109 236 48 77 84 120 167 196 249 230 477
381 574 381 30 0 192 83 286 147 183 124 396 308 455 394 27 37 29 49 30 124
0 78 -2 85 -31 121 -36 45 -94 77 -179 99 -72 19 -297 27 -415 15z"/>
</g>
</svg>
