<?xml version="1.0" encoding="UTF-8" standalone="no"?>
<!DOCTYPE svg PUBLIC "-//W3C//DTD SVG 1.1//EN" "http://www.w3.org/Graphics/SVG/1.1/DTD/svg11.dtd">
<!-- Generated by graphviz version 2.38.0 (20140413.2041)
 -->
<!-- Title: G Pages: 1 -->
<svg width="731pt" height="44pt" viewBox="0.00 0.00 731.00 44.00" xmlns="http://www.w3.org/2000/svg" xmlns:xlink="http://www.w3.org/1999/xlink">
<g id="graph0" class="graph" transform="scale(1 1) rotate(0) translate(4 40)">
<title>G</title>
<polygon fill="white" stroke="none" points="-4,4 -4,-40 727,-40 727,4 -4,4"/>
<!-- 1 -->
<g id="node1" class="node"><title>1</title>
</g>
<!-- 2 -->
<g id="node2" class="node"><title>2</title>
<polygon fill="none" stroke="black" points="315,-36 184,-36 184,-0 315,-0 315,-36"/>
<text text-anchor="middle" x="249.5" y="-14.3" font-family="Times,serif" font-size="14.00">goto conversion</text>
</g>
<!-- 1&#45;&gt;2 -->
<g id="edge1" class="edge"><title>1-&gt;2</title>
<path fill="none" stroke="black" d="M54.1601,-18C83.4582,-18 132.262,-18 173.632,-18"/>
<polygon fill="black" stroke="black" points="173.698,-21.5001 183.698,-18 173.698,-14.5001 173.698,-21.5001"/>
<text text-anchor="middle" x="119" y="-21.8" font-family="Times,serif" font-size="14.00">Symbol table</text>
</g>
<!-- 3 -->
<g id="node3" class="node"><title>3</title>
</g>
<!-- 2&#45;&gt;3 -->
<g id="edge2" class="edge"><title>2-&gt;3</title>
<path fill="none" stroke="black" d="M315.134,-18C409.687,-18 582.654,-18 658.133,-18"/>
<polygon fill="black" stroke="black" points="658.541,-21.5001 668.541,-18 658.541,-14.5001 658.541,-21.5001"/>
<text text-anchor="middle" x="492" y="-21.8" font-family="Times,serif" font-size="14.00">goto-programs, goto-functions, symbol table</text>
</g>
</g>
</svg>